<svg xmlns="http://www.w3.org/2000/svg" width="40" height="40" viewBox="0 0 40 40" role="img"><title>Narrative Forms admin icon</title><desc>NF monogram in brackets, inside a rounded square badge.</desc>
<rect x="1" y="1" width="38" height="38" rx="9" fill="#f0f0f1"/>
<g transform="translate(3,14.05) scale(0.04775)"><g transform="translate(0.000000,249.000000) scale(0.100000,-0.100000)" fill="#1d2327" stroke="none"><path d="M1833 2393 c-4 -10 -6 -531 -3 -1158 l5 -1140 183 -3 182 -2 1 487
c1 269 0 640 -1 825 -2 315 -1 338 15 345 13 4 25 -2 39 -19 98 -118 148 -180
296 -368 94 -118 194 -244 223 -280 30 -36 78 -96 107 -135 29 -38 83 -106
119 -150 37 -44 88 -107 113 -140 373 -475 447 -562 485 -568 49 -9 245 -7
303 1 l45 7 5 975 5 975 636 3 c493 2 639 5 646 15 5 6 19 39 32 72 13 33 43
104 68 157 24 54 42 101 40 105 -10 15 -1779 6 -1788 -9 -5 -7 -9 -242 -8
-523 2 -1007 0 -1165 -14 -1165 -18 0 -62 49 -133 145 -32 44 -90 119 -129
166 -38 48 -106 133 -150 190 -44 57 -94 119 -111 139 -17 19 -53 63 -80 98
-27 35 -62 80 -79 101 -16 21 -51 65 -76 99 -25 34 -78 101 -117 149 -39 48
-95 118 -124 154 -29 36 -98 121 -153 189 -55 68 -124 153 -153 189 -76 96
-63 91 -254 91 -150 0 -168 -2 -175 -17z"/>
<path d="M4202 1193 l3 -158 350 -3 c193 -1 360 0 372 3 14 3 27 20 39 52 9
27 34 90 55 140 22 51 39 100 39 108 0 13 -53 15 -430 15 l-431 0 3 -157z"/>
<path d="M5766 2003 c-8 -27 -10 -285 -3 -308 7 -19 68 -61 115 -78 12 -5 22
-13 22 -18 0 -6 24 -21 53 -35 28 -14 71 -36 95 -50 23 -13 60 -34 81 -46 22
-13 66 -39 99 -60 33 -20 70 -39 81 -43 12 -3 21 -11 21 -16 0 -5 4 -9 10 -9
19 0 230 -124 230 -135 0 -18 -41 -50 -110 -85 -36 -18 -72 -39 -81 -46 -8 -8
-20 -14 -26 -14 -6 0 -16 -7 -23 -15 -7 -8 -20 -15 -30 -15 -9 0 -28 -8 -41
-18 -13 -11 -64 -40 -114 -67 -49 -26 -97 -53 -105 -60 -8 -7 -31 -20 -50 -29
-19 -9 -48 -25 -65 -35 -50 -33 -79 -49 -105 -60 -82 -35 -87 -48 -82 -219 3
-139 4 -143 27 -154 19 -9 31 -7 60 11 20 11 42 21 49 21 8 0 19 6 25 14 6 7
42 29 79 47 36 19 99 53 140 77 40 23 77 42 82 42 4 0 22 11 38 25 16 13 40
29 53 35 25 10 47 23 90 51 14 9 66 38 115 64 49 26 96 52 104 59 8 7 38 24
65 38 66 34 149 80 155 87 3 3 30 18 60 33 30 16 78 40 105 56 l50 27 3 110
c3 151 3 152 -191 249 -37 19 -74 39 -81 45 -13 11 -84 51 -141 79 -16 8 -44
25 -62 38 -17 13 -37 24 -44 24 -7 0 -20 7 -28 15 -17 15 -142 84 -200 111
-19 9 -49 26 -65 39 -17 12 -53 34 -81 47 -48 24 -125 65 -210 114 -141 80
-160 87 -169 57z"/>
<path d="M1253 1976 c-16 -13 -91 -57 -168 -97 -77 -40 -142 -75 -145 -79 -3
-3 -23 -15 -45 -26 -99 -51 -245 -129 -302 -162 -126 -74 -194 -112 -203 -112
-5 0 -15 -6 -22 -13 -7 -7 -58 -36 -113 -64 -188 -96 -175 -79 -174 -223 1
-133 -14 -115 169 -211 24 -13 49 -29 55 -36 5 -7 30 -21 55 -32 46 -21 53
-25 127 -73 23 -16 48 -28 57 -28 8 0 19 -6 23 -14 4 -8 41 -30 82 -50 41 -20
77 -39 80 -43 7 -9 40 -27 160 -90 47 -24 90 -48 96 -53 7 -6 43 -26 81 -46
38 -20 76 -42 84 -48 50 -38 151 -80 168 -70 21 13 31 279 12 324 -10 23 -104
76 -167 95 -13 3 -23 11 -23 16 0 5 -21 19 -47 32 -45 22 -270 148 -338 188
-16 10 -48 27 -70 38 -170 87 -191 111 -118 140 22 9 49 23 60 32 10 9 43 27
73 40 30 12 62 27 70 34 26 19 138 85 145 85 4 0 19 9 34 19 26 19 77 48 193
109 32 17 65 38 74 46 8 9 23 16 32 16 20 1 65 38 80 66 5 10 9 79 8 152 -1
120 -3 135 -20 148 -26 19 -30 18 -63 -10z"/></g></g>
</svg>
